<svg width="400" height="400" viewBox="0 0 400 400" fill="none" xmlns="http://www.w3.org/2000/svg">
<g filter="url(#filter0_d_2_2)">
<rect x="30" y="36" width="235" height="154" rx="30" fill="#E04646"/>
</g>
<g filter="url(#filter1_d_2_2)">
<rect x="156" y="210" width="214" height="153" rx="30" fill="#5067FF"/>
</g>
<path d="M233.629 276.461H219.63C219.374 274.65 218.852 273.041 218.064 271.635C217.276 270.207 216.263 268.993 215.028 267.991C213.792 266.99 212.364 266.223 210.745 265.69C209.147 265.158 207.411 264.891 205.536 264.891C202.148 264.891 199.197 265.733 196.683 267.416C194.168 269.078 192.219 271.507 190.834 274.703C189.449 277.878 188.756 281.734 188.756 286.273C188.756 290.939 189.449 294.859 190.834 298.034C192.24 301.209 194.2 303.606 196.714 305.225C199.229 306.844 202.137 307.654 205.44 307.654C207.293 307.654 209.009 307.409 210.585 306.919C212.183 306.429 213.6 305.715 214.836 304.778C216.072 303.819 217.094 302.658 217.904 301.294C218.735 299.93 219.31 298.375 219.63 296.628L233.629 296.692C233.266 299.696 232.361 302.594 230.912 305.385C229.484 308.155 227.556 310.637 225.127 312.832C222.719 315.005 219.843 316.731 216.498 318.009C213.174 319.266 209.413 319.895 205.216 319.895C199.378 319.895 194.158 318.574 189.555 315.932C184.974 313.29 181.352 309.465 178.689 304.458C176.047 299.451 174.726 293.389 174.726 286.273C174.726 279.135 176.068 273.062 178.753 268.055C181.438 263.048 185.081 259.234 189.683 256.614C194.286 253.972 199.463 252.651 205.216 252.651C209.009 252.651 212.524 253.183 215.763 254.249C219.023 255.314 221.91 256.869 224.424 258.915C226.938 260.939 228.984 263.421 230.56 266.362C232.158 269.302 233.181 272.668 233.629 276.461ZM279.06 272.37C278.804 269.792 277.707 267.789 275.768 266.362C273.829 264.934 271.198 264.22 267.874 264.22C265.615 264.22 263.708 264.54 262.153 265.179C260.598 265.797 259.404 266.66 258.574 267.768C257.764 268.876 257.359 270.133 257.359 271.539C257.316 272.711 257.561 273.734 258.094 274.607C258.648 275.481 259.404 276.237 260.363 276.876C261.322 277.494 262.43 278.038 263.687 278.506C264.944 278.954 266.287 279.337 267.714 279.657L273.595 281.063C276.45 281.702 279.071 282.555 281.457 283.62C283.843 284.685 285.91 285.996 287.657 287.551C289.404 289.107 290.757 290.939 291.716 293.048C292.696 295.158 293.197 297.576 293.218 300.303C293.197 304.309 292.174 307.782 290.15 310.722C288.147 313.641 285.25 315.911 281.457 317.53C277.686 319.128 273.137 319.927 267.81 319.927C262.526 319.927 257.924 319.117 254.003 317.498C250.104 315.879 247.057 313.482 244.863 310.307C242.689 307.111 241.549 303.158 241.443 298.45H254.834C254.983 300.644 255.612 302.477 256.72 303.947C257.849 305.396 259.351 306.493 261.226 307.239C263.123 307.963 265.264 308.325 267.65 308.325C269.994 308.325 272.029 307.984 273.755 307.303C275.502 306.621 276.855 305.673 277.814 304.458C278.772 303.244 279.252 301.848 279.252 300.271C279.252 298.801 278.815 297.565 277.941 296.564C277.089 295.562 275.832 294.71 274.17 294.007C272.529 293.304 270.516 292.665 268.13 292.089L261.002 290.3C255.484 288.957 251.127 286.859 247.931 284.004C244.735 281.148 243.147 277.303 243.169 272.466C243.147 268.503 244.202 265.04 246.333 262.079C248.485 259.117 251.436 256.805 255.186 255.143C258.936 253.482 263.197 252.651 267.97 252.651C272.828 252.651 277.068 253.482 280.69 255.143C284.333 256.805 287.167 259.117 289.191 262.079C291.216 265.04 292.26 268.471 292.324 272.37H279.06ZM338.035 272.37C337.779 269.792 336.682 267.789 334.743 266.362C332.804 264.934 330.172 264.22 326.849 264.22C324.59 264.22 322.683 264.54 321.128 265.179C319.572 265.797 318.379 266.66 317.548 267.768C316.738 268.876 316.334 270.133 316.334 271.539C316.291 272.711 316.536 273.734 317.069 274.607C317.623 275.481 318.379 276.237 319.338 276.876C320.297 277.494 321.405 278.038 322.662 278.506C323.919 278.954 325.261 279.337 326.689 279.657L332.569 281.063C335.425 281.702 338.045 282.555 340.432 283.62C342.818 284.685 344.885 285.996 346.632 287.551C348.379 289.107 349.732 290.939 350.691 293.048C351.671 295.158 352.172 297.576 352.193 300.303C352.172 304.309 351.149 307.782 349.125 310.722C347.122 313.641 344.224 315.911 340.432 317.53C336.66 319.128 332.111 319.927 326.785 319.927C321.501 319.927 316.898 319.117 312.978 317.498C309.079 315.879 306.032 313.482 303.837 310.307C301.664 307.111 300.524 303.158 300.417 298.45H313.809C313.958 300.644 314.586 302.477 315.694 303.947C316.824 305.396 318.326 306.493 320.201 307.239C322.097 307.963 324.238 308.325 326.625 308.325C328.969 308.325 331.003 307.984 332.729 307.303C334.476 306.621 335.829 305.673 336.788 304.458C337.747 303.244 338.226 301.848 338.226 300.271C338.226 298.801 337.79 297.565 336.916 296.564C336.064 295.562 334.807 294.71 333.145 294.007C331.504 293.304 329.491 292.665 327.104 292.089L319.977 290.3C314.459 288.957 310.101 286.859 306.905 284.004C303.709 281.148 302.122 277.303 302.143 272.466C302.122 268.503 303.177 265.04 305.307 262.079C307.459 259.117 310.41 256.805 314.16 255.143C317.91 253.482 322.172 252.651 326.944 252.651C331.802 252.651 336.042 253.482 339.665 255.143C343.308 256.805 346.142 259.117 348.166 262.079C350.19 265.04 351.234 268.471 351.298 272.37H338.035Z" fill="white"/>
<g filter="url(#filter2_d_2_2)">
<rect x="285" y="36" width="85" height="154" rx="30" fill="#00E26D"/>
</g>
<g filter="url(#filter3_d_2_2)">
<rect x="30" y="210" width="106" height="153" rx="30" fill="#00E26D"/>
</g>
<defs>
<filter id="filter0_d_2_2" x="30" y="36" width="235" height="158" filterUnits="userSpaceOnUse" color-interpolation-filters="sRGB">
<feFlood flood-opacity="0" result="BackgroundImageFix"/>
<feColorMatrix in="SourceAlpha" type="matrix" values="0 0 0 0 0 0 0 0 0 0 0 0 0 0 0 0 0 0 127 0" result="hardAlpha"/>
<feOffset dy="4"/>
<feComposite in2="hardAlpha" operator="out"/>
<feColorMatrix type="matrix" values="0 0 0 0 0 0 0 0 0 0 0 0 0 0 0 0 0 0 0.25 0"/>
<feBlend mode="normal" in2="BackgroundImageFix" result="effect1_dropShadow_2_2"/>
<feBlend mode="normal" in="SourceGraphic" in2="effect1_dropShadow_2_2" result="shape"/>
</filter>
<filter id="filter1_d_2_2" x="156" y="210" width="214" height="157" filterUnits="userSpaceOnUse" color-interpolation-filters="sRGB">
<feFlood flood-opacity="0" result="BackgroundImageFix"/>
<feColorMatrix in="SourceAlpha" type="matrix" values="0 0 0 0 0 0 0 0 0 0 0 0 0 0 0 0 0 0 127 0" result="hardAlpha"/>
<feOffset dy="4"/>
<feComposite in2="hardAlpha" operator="out"/>
<feColorMatrix type="matrix" values="0 0 0 0 0 0 0 0 0 0 0 0 0 0 0 0 0 0 0.25 0"/>
<feBlend mode="normal" in2="BackgroundImageFix" result="effect1_dropShadow_2_2"/>
<feBlend mode="normal" in="SourceGraphic" in2="effect1_dropShadow_2_2" result="shape"/>
</filter>
<filter id="filter2_d_2_2" x="285" y="36" width="85" height="158" filterUnits="userSpaceOnUse" color-interpolation-filters="sRGB">
<feFlood flood-opacity="0" result="BackgroundImageFix"/>
<feColorMatrix in="SourceAlpha" type="matrix" values="0 0 0 0 0 0 0 0 0 0 0 0 0 0 0 0 0 0 127 0" result="hardAlpha"/>
<feOffset dy="4"/>
<feComposite in2="hardAlpha" operator="out"/>
<feColorMatrix type="matrix" values="0 0 0 0 0 0 0 0 0 0 0 0 0 0 0 0 0 0 0.25 0"/>
<feBlend mode="normal" in2="BackgroundImageFix" result="effect1_dropShadow_2_2"/>
<feBlend mode="normal" in="SourceGraphic" in2="effect1_dropShadow_2_2" result="shape"/>
</filter>
<filter id="filter3_d_2_2" x="30" y="210" width="106" height="157" filterUnits="userSpaceOnUse" color-interpolation-filters="sRGB">
<feFlood flood-opacity="0" result="BackgroundImageFix"/>
<feColorMatrix in="SourceAlpha" type="matrix" values="0 0 0 0 0 0 0 0 0 0 0 0 0 0 0 0 0 0 127 0" result="hardAlpha"/>
<feOffset dy="4"/>
<feComposite in2="hardAlpha" operator="out"/>
<feColorMatrix type="matrix" values="0 0 0 0 0 0 0 0 0 0 0 0 0 0 0 0 0 0 0.25 0"/>
<feBlend mode="normal" in2="BackgroundImageFix" result="effect1_dropShadow_2_2"/>
<feBlend mode="normal" in="SourceGraphic" in2="effect1_dropShadow_2_2" result="shape"/>
</filter>
</defs>
</svg>
